# xmcd
#
# Track frame offsets: 
#        553
#        13668
#        27584
#        42419
#        54916
#        69075
#        86992
#        96387
#        105210
#        120990
#        129916
#        153466
#
# Disc length: 3475 seconds
#
# Revision: 0
# Processed by: cddbd v1.5.2PL0 Copyright (c) Steve Scherf et al.
# Submitted via: ExactAudioCopy v0.99pb3
#
DISCID=950d8c0c
DTITLE=Jonny Corndawg - Down on the Bikini Line
DYEAR=2011
DGENRE=Country
TTITLE0=Shaved Like A Razor
TTITLE1=Chevy Beretta
TTITLE2=Dog On A Chain
TTITLE3=Fools And Sages
TTITLE4=Life Of A Bear
TTITLE5=Night Rider
TTITLE6=When A Ford Man Turns To Chevy
TTITLE7=Red On The Head
TTITLE8=Undercover Dad
TTITLE9=Silver Panty Liners
TTITLE10=Shaved Like A Razor (Reprise)
TTITLE11=Stray Dawg
EXTD=
EXTT0=
EXTT1=
EXTT2=
EXTT3=
EXTT4=
EXTT5=
EXTT6=
EXTT7=
EXTT8=
EXTT9=
EXTT10=
EXTT11=
PLAYORDER=
